<svg xmlns="http://www.w3.org/2000/svg" viewBox="0 0 640 512"><path d="M320 64a112.14 112.14 0 00-112 112 16 16 0 0032 0 80.09 80.09 0 0180-80 16 16 0 000-32zm0-64C217.06 0 143.88 83.55 144 176.23a175 175 0 0043.56 115.55C213.22 321 237.84 368.69 240 384l.06 75.19a15.88 15.88 0 002.69 8.83l24.5 36.84a16 16 0 0013.31 7.14h78.85a16 16 0 0013.34-7.14l24.5-36.86a16.17 16.17 0 002.69-8.83L400 384c2.25-15.72 27-63.19 52.44-92.22A175.9 175.9 0 00320 0zm47.94 454.31L350.84 480h-61.72l-17.06-25.69V448h95.91zM368 416h-96l-.06-32H368zm60.41-145.31c-14 15.95-36.32 48.09-50.57 81.29H262.22c-14.28-33.21-36.6-65.34-50.6-81.29A143.47 143.47 0 01176.06 176C175.88 99 236.44 32 320 32c79.41 0 144 64.59 144 144a143.69 143.69 0 01-35.62 94.69zM96 176a16 16 0 00-16-16H16a16 16 0 000 32h64a16 16 0 0016-16zM528 64a16.17 16.17 0 007.16-1.69l64-32a16 16 0 00-14.32-28.62l-64 32A16 16 0 00528 64zm96 96h-64a16 16 0 000 32h64a16 16 0 000-32zM119.16 33.69l-64-32a16 16 0 00-14.32 28.62l64 32A16.17 16.17 0 00112 64a16 16 0 007.16-30.31zm480 288l-64-32a16 16 0 00-14.32 28.63l64 32a16 16 0 0014.32-28.63zM112 288a16.17 16.17 0 00-7.16 1.69l-64 32a16 16 0 0014.32 28.63l64-32A16 16 0 00112 288z"/></svg>